<svg width="169" height="109" viewBox="0 0 169 109" fill="none" xmlns="http://www.w3.org/2000/svg">
    <g opacity="0.88">
        <mask id="path-1-outside-1_177_520" maskUnits="userSpaceOnUse" x="-1" y="-1.05273"
            width="171" height="111" fill="black">
            <rect fill="white" x="-1" y="-1.05273" width="171" height="111" />
            <path
                d="M88.985 44.9323L86.66 64.4623H105.415V87.7123H83.715L81.08 108.947H56.28L58.915 87.7123H43.57L40.935 108.947H16.135L18.77 87.7123H0.015V64.4623H21.715L24.04 44.9323H5.285V21.6823H26.985L29.62 0.447258H54.42L51.785 21.6823H67.13L69.765 0.447258H94.565L91.93 21.6823H110.685V44.9323H88.985ZM64.185 44.9323H48.84L46.515 64.4623H61.86L64.185 44.9323ZM168.691 0.447258V108.947H132.111V28.0373H113.511V0.447258H168.691Z" />
        </mask>
        <path
            d="M88.985 44.9323V43.9323H88.097L87.992 44.814L88.985 44.9323ZM86.66 64.4623L85.667 64.3441L85.5339 65.4623H86.66V64.4623ZM105.415 64.4623H106.415V63.4623H105.415V64.4623ZM105.415 87.7123V88.7123H106.415V87.7123H105.415ZM83.715 87.7123V86.7123H82.8314L82.7226 87.5891L83.715 87.7123ZM81.08 108.947V109.947H81.9636L82.0724 109.07L81.08 108.947ZM56.28 108.947L55.2876 108.824L55.1482 109.947H56.28V108.947ZM58.915 87.7123L59.9074 87.8354L60.0468 86.7123H58.915V87.7123ZM43.57 87.7123V86.7123H42.6864L42.5776 87.5891L43.57 87.7123ZM40.935 108.947V109.947H41.8186L41.9274 109.07L40.935 108.947ZM16.135 108.947L15.1426 108.824L15.0032 109.947H16.135V108.947ZM18.77 87.7123L19.7624 87.8354L19.9018 86.7123H18.77V87.7123ZM0.0150001 87.7123H-0.985V88.7123H0.0150001V87.7123ZM0.0150001 64.4623V63.4623H-0.985V64.4623H0.0150001ZM21.715 64.4623V65.4623H22.603L22.708 64.5805L21.715 64.4623ZM24.04 44.9323L25.033 45.0505L25.1661 43.9323H24.04V44.9323ZM5.285 44.9323H4.285V45.9323H5.285V44.9323ZM5.285 21.6823V20.6823H4.285V21.6823H5.285ZM26.985 21.6823V22.6823H27.8686L27.9774 21.8054L26.985 21.6823ZM29.62 0.447258V-0.552742H28.7364L28.6276 0.324116L29.62 0.447258ZM54.42 0.447258L55.4124 0.5704L55.5518 -0.552742H54.42V0.447258ZM51.785 21.6823L50.7926 21.5591L50.6532 22.6823H51.785V21.6823ZM67.13 21.6823V22.6823H68.0136L68.1224 21.8054L67.13 21.6823ZM69.765 0.447258V-0.552742H68.8814L68.7726 0.324116L69.765 0.447258ZM94.565 0.447258L95.5574 0.5704L95.6968 -0.552742H94.565V0.447258ZM91.93 21.6823L90.9376 21.5591L90.7982 22.6823H91.93V21.6823ZM110.685 21.6823H111.685V20.6823H110.685V21.6823ZM110.685 44.9323V45.9323H111.685V44.9323H110.685ZM64.185 44.9323L65.178 45.0505L65.3111 43.9323H64.185V44.9323ZM48.84 44.9323V43.9323H47.952L47.847 44.814L48.84 44.9323ZM46.515 64.4623L45.522 64.3441L45.3889 65.4623H46.515V64.4623ZM61.86 64.4623V65.4623H62.748L62.853 64.5805L61.86 64.4623ZM87.992 44.814L85.667 64.3441L87.653 64.5805L89.978 45.0505L87.992 44.814ZM86.66 65.4623H105.415V63.4623H86.66V65.4623ZM104.415 64.4623V87.7123H106.415V64.4623H104.415ZM105.415 86.7123H83.715V88.7123H105.415V86.7123ZM82.7226 87.5891L80.0876 108.824L82.0724 109.07L84.7074 87.8354L82.7226 87.5891ZM81.08 107.947H56.28V109.947H81.08V107.947ZM57.2724 109.07L59.9074 87.8354L57.9226 87.5891L55.2876 108.824L57.2724 109.07ZM58.915 86.7123H43.57V88.7123H58.915V86.7123ZM42.5776 87.5891L39.9426 108.824L41.9274 109.07L44.5624 87.8354L42.5776 87.5891ZM40.935 107.947H16.135V109.947H40.935V107.947ZM17.1274 109.07L19.7624 87.8354L17.7776 87.5891L15.1426 108.824L17.1274 109.07ZM18.77 86.7123H0.0150001V88.7123H18.77V86.7123ZM1.015 87.7123V64.4623H-0.985V87.7123H1.015ZM0.0150001 65.4623H21.715V63.4623H0.0150001V65.4623ZM22.708 64.5805L25.033 45.0505L23.047 44.814L20.722 64.3441L22.708 64.5805ZM24.04 43.9323H5.285V45.9323H24.04V43.9323ZM6.285 44.9323V21.6823H4.285V44.9323H6.285ZM5.285 22.6823H26.985V20.6823H5.285V22.6823ZM27.9774 21.8054L30.6124 0.5704L28.6276 0.324116L25.9926 21.5591L27.9774 21.8054ZM29.62 1.44726H54.42V-0.552742H29.62V1.44726ZM53.4276 0.324116L50.7926 21.5591L52.7774 21.8054L55.4124 0.5704L53.4276 0.324116ZM51.785 22.6823H67.13V20.6823H51.785V22.6823ZM68.1224 21.8054L70.7574 0.5704L68.7726 0.324116L66.1376 21.5591L68.1224 21.8054ZM69.765 1.44726H94.565V-0.552742H69.765V1.44726ZM93.5726 0.324116L90.9376 21.5591L92.9224 21.8054L95.5574 0.5704L93.5726 0.324116ZM91.93 22.6823H110.685V20.6823H91.93V22.6823ZM109.685 21.6823V44.9323H111.685V21.6823H109.685ZM110.685 43.9323H88.985V45.9323H110.685V43.9323ZM64.185 43.9323H48.84V45.9323H64.185V43.9323ZM47.847 44.814L45.522 64.3441L47.508 64.5805L49.833 45.0505L47.847 44.814ZM46.515 65.4623H61.86V63.4623H46.515V65.4623ZM62.853 64.5805L65.178 45.0505L63.192 44.814L60.867 64.3441L62.853 64.5805ZM168.691 0.447258H169.691V-0.552742H168.691V0.447258ZM168.691 108.947V109.947H169.691V108.947H168.691ZM132.111 108.947H131.111V109.947H132.111V108.947ZM132.111 28.0373H133.111V27.0373H132.111V28.0373ZM113.511 28.0373H112.511V29.0373H113.511V28.0373ZM113.511 0.447258V-0.552742H112.511V0.447258H113.511ZM167.691 0.447258V108.947H169.691V0.447258H167.691ZM168.691 107.947H132.111V109.947H168.691V107.947ZM133.111 108.947V28.0373H131.111V108.947H133.111ZM132.111 27.0373H113.511V29.0373H132.111V27.0373ZM114.511 28.0373V0.447258H112.511V28.0373H114.511ZM113.511 1.44726H168.691V-0.552742H113.511V1.44726Z"
            fill="#04D404" fill-opacity="0.66" mask="url(#path-1-outside-1_177_520)" />
    </g>
</svg>
    